<svg version="1.1" xmlns="http://www.w3.org/2000/svg" viewBox="0 0 2582.2616757589135 749.9178292912321" width="5164.523351517827" height="1499.8356585824642">
  <!-- svg-source:excalidraw -->
  
  <defs>
    <style class="style-fonts">
      @font-face {
        font-family: "Virgil";
        src: url("https://excalidraw.com/Virgil.woff2");
      }
      @font-face {
        font-family: "Cascadia";
        src: url("https://excalidraw.com/Cascadia.woff2");
      }
      @font-face {
        font-family: "Assistant";
        src: url("https://excalidraw.com/Assistant-Regular.woff2");
      }
    </style>
    
  </defs>
  <rect x="0" y="0" width="2582.2616757589135" height="749.9178292912321" fill="#ffffff"></rect><g transform="translate(949.28125 682.8659169424703) rotate(0 34.055992126464844 22.5)"><text x="0" y="31.536" font-family="Virgil, Segoe UI Emoji" font-size="36px" fill="#1e1e1e" text-anchor="start" style="white-space: pre;" direction="ltr" dominant-baseline="alphabetic">json</text></g><g stroke-linecap="round" transform="translate(575.765625 302.39716694247034) rotate(0 183.81943876936236 88.9921875)"><path d="M32 0 C124.41 2.94, 220.61 1.87, 335.64 0 M32 0 C141.88 -0.57, 252.36 -0.5, 335.64 0 M335.64 0 C356.25 0.13, 365.94 10.32, 367.64 32 M335.64 0 C354.79 -0.11, 366.72 10.11, 367.64 32 M367.64 32 C369.02 59.9, 366.62 85.77, 367.64 145.98 M367.64 32 C367.62 76.47, 366.96 120.9, 367.64 145.98 M367.64 145.98 C365.66 165.55, 356.31 178.17, 335.64 177.98 M367.64 145.98 C369.09 167.22, 354.94 180.02, 335.64 177.98 M335.64 177.98 C243.4 180.02, 148.96 179.37, 32 177.98 M335.64 177.98 C265.47 180.14, 195.09 179.84, 32 177.98 M32 177.98 C10.65 177.87, 0.75 167.54, 0 145.98 M32 177.98 C8.66 176.8, -1.02 167.25, 0 145.98 M0 145.98 C-1.08 109.8, -1.53 75.58, 0 32 M0 145.98 C-0.66 118.14, -0.19 87.79, 0 32 M0 32 C1.93 12.51, 9.08 0.06, 32 0 M0 32 C0.96 10.82, 8.59 -1.06, 32 0" stroke="#1e1e1e" stroke-width="2" fill="none"></path></g><g transform="translate(587.5811575193624 356.38935444247034) rotate(0 172.00390625000006 35)"><text x="172.00390625" y="24.528" font-family="Virgil, Segoe UI Emoji" font-size="28px" fill="#1e1e1e" text-anchor="middle" style="white-space: pre;" direction="ltr" dominant-baseline="alphabetic">DefaultPayloadContainer</text><text x="172.00390625" y="59.528" font-family="Virgil, Segoe UI Emoji" font-size="28px" fill="#1e1e1e" text-anchor="middle" style="white-space: pre;" direction="ltr" dominant-baseline="alphabetic">(object)</text></g><g stroke-linecap="round" transform="translate(132.53125 303.20966694247034) rotate(0 169.6328125 88.9921875)"><path d="M32 0 C129.74 -2.31, 228.99 -2.15, 307.27 0 M32 0 C127.65 1.31, 221.99 1.69, 307.27 0 M307.27 0 C326.92 0.66, 339.65 12.56, 339.27 32 M307.27 0 C330.42 -1.58, 339.77 9.53, 339.27 32 M339.27 32 C340.33 72.24, 338.79 114.02, 339.27 145.98 M339.27 32 C337.75 59.51, 338.74 88.78, 339.27 145.98 M339.27 145.98 C339.19 167.67, 328.28 179.63, 307.27 177.98 M339.27 145.98 C338.21 168.84, 330.36 176.01, 307.27 177.98 M307.27 177.98 C238.96 176.38, 171.77 178.15, 32 177.98 M307.27 177.98 C245.09 177.87, 182.75 177.53, 32 177.98 M32 177.98 C12.07 177.91, 0.25 167.84, 0 145.98 M32 177.98 C11.28 179.11, 0.93 168.05, 0 145.98 M0 145.98 C1.7 119.52, 2.08 90.14, 0 32 M0 145.98 C-1.42 111.47, -1.36 78.03, 0 32 M0 32 C0.96 11.9, 9.05 0.9, 32 0 M0 32 C1.25 10.35, 11.87 -0.87, 32 0" stroke="#1e1e1e" stroke-width="2" fill="none"></path></g><g transform="translate(221.67809295654297 357.20185444247034) rotate(0 80.48596954345703 35)"><text x="80.48596954345703" y="24.528" font-family="Virgil, Segoe UI Emoji" font-size="28px" fill="#1e1e1e" text-anchor="middle" style="white-space: pre;" direction="ltr" dominant-baseline="alphabetic">PayloadDto</text><text x="80.48596954345703" y="59.528" font-family="Virgil, Segoe UI Emoji" font-size="28px" fill="#1e1e1e" text-anchor="middle" style="white-space: pre;" direction="ltr" dominant-baseline="alphabetic">(interface)</text></g><g stroke-linecap="round" transform="translate(387.82421875 580.6862294424703) rotate(0 143.20703125 75.91015625)"><path d="M32 0 C118.96 1.64, 205.65 1.25, 254.41 0 M32 0 C81.49 0.54, 131.64 1.97, 254.41 0 M254.41 0 C274.71 1.66, 288.14 11.67, 286.41 32 M254.41 0 C277.56 -1.4, 287.49 10.54, 286.41 32 M286.41 32 C286.44 55.94, 285.38 81.88, 286.41 119.82 M286.41 32 C287.23 63.03, 287.24 93.38, 286.41 119.82 M286.41 119.82 C286.38 139.91, 276.72 150.55, 254.41 151.82 M286.41 119.82 C286.86 140.89, 273.54 151.42, 254.41 151.82 M254.41 151.82 C183.11 153.8, 107.91 152.44, 32 151.82 M254.41 151.82 C168.64 152.36, 82.27 151.73, 32 151.82 M32 151.82 C10.14 152.69, -0.23 139.4, 0 119.82 M32 151.82 C11.38 152.51, 1.25 142.16, 0 119.82 M0 119.82 C-0.22 92.64, 1.18 65.36, 0 32 M0 119.82 C-0.6 98.32, 0.79 76.87, 0 32 M0 32 C-1.08 10.01, 11.51 0.97, 32 0 M0 32 C1.74 12.45, 11.79 -0.64, 32 0" stroke="#1e1e1e" stroke-width="2" fill="none"></path></g><g transform="translate(423.53931427001953 639.0963856924703) rotate(0 107.49193572998047 17.5)"><text x="107.49193572998047" y="24.528" font-family="Virgil, Segoe UI Emoji" font-size="28px" fill="#1e1e1e" text-anchor="middle" style="white-space: pre;" direction="ltr" dominant-baseline="alphabetic">yonseiHttpClient</text></g><g stroke-linecap="round"><g transform="translate(305.1171875 479.55341694247034) rotate(0 114.115234375 53.44140625)"><path d="M-0.62 0.7 C37.71 18.57, 191.2 89.76, 229.35 107.58 M1.25 0.03 C39.59 17.51, 191.28 88.22, 228.98 105.82" stroke="#1e1e1e" stroke-width="2" fill="none"></path></g><g transform="translate(305.1171875 479.55341694247034) rotate(0 114.115234375 53.44140625)"><path d="M204.08 103.64 C211.36 106.17, 217.44 104.87, 228.98 105.82 M204.08 103.64 C212.7 103.74, 222.64 105.21, 228.98 105.82" stroke="#1e1e1e" stroke-width="2" fill="none"></path></g><g transform="translate(305.1171875 479.55341694247034) rotate(0 114.115234375 53.44140625)"><path d="M211.31 88.15 C216.87 94.42, 221.18 96.92, 228.98 105.82 M211.31 88.15 C217.39 93.9, 224.72 100.97, 228.98 105.82" stroke="#1e1e1e" stroke-width="2" fill="none"></path></g></g><mask></mask><g stroke-linecap="round"><g transform="translate(778.9885239727023 482.91279194247034) rotate(0 -124.10559011135115 49.84765625)"><path d="M0.98 1.04 C-40.43 17.68, -207.83 84.19, -249.18 100.6 M0.03 0.53 C-40.95 16.78, -205.74 82.25, -246.97 98.95" stroke="#1e1e1e" stroke-width="2" fill="none"></path></g><g transform="translate(778.9885239727023 482.91279194247034) rotate(0 -124.10559011135115 49.84765625)"><path d="M-228.34 82.28 C-231.01 84.85, -235.73 92.28, -246.97 98.95 M-228.34 82.28 C-233.06 87.64, -239.31 90.68, -246.97 98.95" stroke="#1e1e1e" stroke-width="2" fill="none"></path></g><g transform="translate(778.9885239727023 482.91279194247034) rotate(0 -124.10559011135115 49.84765625)"><path d="M-221.98 98.15 C-226.28 96.94, -232.54 100.55, -246.97 98.95 M-221.98 98.15 C-228.58 98.93, -236.64 97.46, -246.97 98.95" stroke="#1e1e1e" stroke-width="2" fill="none"></path></g></g><mask></mask><g stroke-linecap="round"><g transform="translate(154.359375 706.7448231924703) rotate(0 366.63671875 0.79296875)"><path d="M-1.03 -0.56 C121.44 -0.3, 611.99 2.33, 734.23 2.5 M0.63 1.76 C123.08 1.61, 611.41 0.95, 733.79 0.86" stroke="#1e1e1e" stroke-width="2" fill="none"></path></g><g transform="translate(154.359375 706.7448231924703) rotate(0 366.63671875 0.79296875)"><path d="M710.3 9.44 C715.21 9.08, 723.57 3.92, 733.79 0.86 M710.3 9.44 C715.01 6.99, 719.06 6.53, 733.79 0.86" stroke="#1e1e1e" stroke-width="2" fill="none"></path></g><g transform="translate(154.359375 706.7448231924703) rotate(0 366.63671875 0.79296875)"><path d="M710.28 -7.67 C715.33 -3.73, 723.7 -4.59, 733.79 0.86 M710.28 -7.67 C715.11 -6.58, 719.16 -3.5, 733.79 0.86" stroke="#1e1e1e" stroke-width="2" fill="none"></path></g></g><mask></mask><g transform="translate(10 686.4479481924703) rotate(0 54.35997009277344 22.5)"><text x="0" y="31.536" font-family="Virgil, Segoe UI Emoji" font-size="36px" fill="#1e1e1e" text-anchor="start" style="white-space: pre;" direction="ltr" dominant-baseline="alphabetic">server</text></g><g stroke-linecap="round" transform="translate(1148.96875 583.5096215919833) rotate(0 143.20703125 75.91015625)"><path d="M32 0 C81.97 -0.79, 127.59 -2.94, 254.41 0 M32 0 C98.79 1.48, 164.35 2.69, 254.41 0 M254.41 0 C275.67 1.99, 287.62 9.69, 286.41 32 M254.41 0 C274.66 1.17, 285.9 10.47, 286.41 32 M286.41 32 C287.1 58.08, 286.46 84.8, 286.41 119.82 M286.41 32 C286.98 66.05, 285.38 101.45, 286.41 119.82 M286.41 119.82 C286.9 140.74, 275.13 151.21, 254.41 151.82 M286.41 119.82 C287.8 142.26, 277.38 149.91, 254.41 151.82 M254.41 151.82 C171.55 151.88, 88.5 152.11, 32 151.82 M254.41 151.82 C180.15 154.25, 107 154.31, 32 151.82 M32 151.82 C11.38 152.32, -1.43 140.78, 0 119.82 M32 151.82 C11.23 149.95, 1.87 139.72, 0 119.82 M0 119.82 C-1.52 85.71, -0.09 51.23, 0 32 M0 119.82 C0.8 101.79, -0.37 83.05, 0 32 M0 32 C0.8 8.99, 12.21 1.34, 32 0 M0 32 C-1.09 8.55, 8.83 0.58, 32 0" stroke="#1e1e1e" stroke-width="2" fill="none"></path></g><g transform="translate(1184.6838455200195 641.9197778419833) rotate(0 107.49193572998047 17.5)"><text x="107.49193572998047" y="24.528" font-family="Virgil, Segoe UI Emoji" font-size="28px" fill="#1e1e1e" text-anchor="middle" style="white-space: pre;" direction="ltr" dominant-baseline="alphabetic">yonseiHttpClient</text></g><g stroke-linecap="round"><g transform="translate(1277.3540341367038 580.7010278419833) rotate(0 -0.010715741404283108 -80.9140625)"><path d="M1.04 -0.96 C1.07 -28.22, 0 -135.68, -0.29 -162.47 M0.13 1.15 C0.02 -25.45, -1.66 -134.36, -1.38 -161.28" stroke="#1e1e1e" stroke-width="2" fill="none"></path></g><g transform="translate(1277.3540341367038 580.7010278419833) rotate(0 -0.010715741404283108 -80.9140625)"><path d="M7.27 -137.82 C3.19 -144.35, 1.44 -151.25, -1.38 -161.28 M7.27 -137.82 C5.07 -145.11, 1.45 -152.77, -1.38 -161.28" stroke="#1e1e1e" stroke-width="2" fill="none"></path></g><g transform="translate(1277.3540341367038 580.7010278419833) rotate(0 -0.010715741404283108 -80.9140625)"><path d="M-9.83 -137.75 C-9.43 -144.45, -6.69 -151.36, -1.38 -161.28 M-9.83 -137.75 C-6.76 -145.11, -5.11 -152.79, -1.38 -161.28" stroke="#1e1e1e" stroke-width="2" fill="none"></path></g></g><mask></mask><g stroke-linecap="round"><g transform="translate(1296.7608805414843 421.6658715919833) rotate(0 1.7515262832345115 78.546875)"><path d="M-1.03 -0.7 C-0.57 25.7, 2.46 131.92, 3.12 158.12 M0.63 1.54 C0.86 27.66, 1.76 130.55, 1.97 156.53" stroke="#1e1e1e" stroke-width="2" fill="none"></path></g><g transform="translate(1296.7608805414843 421.6658715919833) rotate(0 1.7515262832345115 78.546875)"><path d="M-6.77 133.11 C-5.12 140.29, 0.65 147.73, 1.97 156.53 M-6.77 133.11 C-5.38 139.03, -3.03 144.3, 1.97 156.53" stroke="#1e1e1e" stroke-width="2" fill="none"></path></g><g transform="translate(1296.7608805414843 421.6658715919833) rotate(0 1.7515262832345115 78.546875)"><path d="M10.33 132.97 C6.34 140.05, 6.46 147.53, 1.97 156.53 M10.33 132.97 C7.48 138.97, 5.61 144.28, 1.97 156.53" stroke="#1e1e1e" stroke-width="2" fill="none"></path></g></g><mask></mask><g stroke-linecap="round" transform="translate(1147.609375 261.9979028419833) rotate(0 143.20703125 75.91015625)"><path d="M32 0 C105.43 0.77, 180.23 -0.14, 254.41 0 M32 0 C89.74 -1.2, 148.64 -1.5, 254.41 0 M254.41 0 C275.27 -1.72, 285.95 12.07, 286.41 32 M254.41 0 C273.93 0.07, 287.77 11.72, 286.41 32 M286.41 32 C284.57 56.45, 286.11 81.38, 286.41 119.82 M286.41 32 C285.07 65.76, 284.76 102.05, 286.41 119.82 M286.41 119.82 C285.73 140.56, 277.36 151.07, 254.41 151.82 M286.41 119.82 C287.9 141.36, 274.1 151.82, 254.41 151.82 M254.41 151.82 C170.95 152.5, 88.37 152.15, 32 151.82 M254.41 151.82 C194.5 151.89, 134.57 151.43, 32 151.82 M32 151.82 C11.22 150.66, -0.42 141.29, 0 119.82 M32 151.82 C9.03 149.65, -1.49 141.15, 0 119.82 M0 119.82 C-0.93 102.14, 1.26 82.65, 0 32 M0 119.82 C0.58 101.5, 0.77 81.99, 0 32 M0 32 C-1.2 11.54, 8.71 -1.29, 32 0 M0 32 C-0.97 10.24, 12.97 -1.71, 32 0" stroke="#1e1e1e" stroke-width="2" fill="none"></path></g><g transform="translate(1226.024429321289 302.9080590919833) rotate(0 64.79197692871094 35)"><text x="64.79197692871094" y="24.528" font-family="Virgil, Segoe UI Emoji" font-size="28px" fill="#1e1e1e" text-anchor="middle" style="white-space: pre;" direction="ltr" dominant-baseline="alphabetic">Resolvers</text><text x="64.79197692871094" y="59.528" font-family="Virgil, Segoe UI Emoji" font-size="28px" fill="#1e1e1e" text-anchor="middle" style="white-space: pre;" direction="ltr" dominant-baseline="alphabetic">(object)</text></g><g stroke-linecap="round"><g transform="translate(1054.05859375 708.4987294424703) rotate(0 267.52288618134867 0.3058975135539299)"><path d="M0.97 -0.86 C90.08 -0.85, 445.22 0.1, 534.2 0.33 M0.03 1.31 C89.54 1.47, 447.47 1.64, 536.47 1.72" stroke="#1e1e1e" stroke-width="2" fill="none"></path></g><g transform="translate(1054.05859375 708.4987294424703) rotate(0 267.52288618134867 0.3058975135539299)"><path d="M512.97 10.26 C517.77 6.39, 524.99 5.28, 536.47 1.72 M512.97 10.26 C520.85 6.98, 526.76 6.08, 536.47 1.72" stroke="#1e1e1e" stroke-width="2" fill="none"></path></g><g transform="translate(1054.05859375 708.4987294424703) rotate(0 267.52288618134867 0.3058975135539299)"><path d="M512.99 -6.84 C517.82 -6.16, 525.03 -2.73, 536.47 1.72 M512.99 -6.84 C520.83 -5.08, 526.73 -0.94, 536.47 1.72" stroke="#1e1e1e" stroke-width="2" fill="none"></path></g></g><mask></mask><g transform="translate(1598.794170280245 690.6917246445474) rotate(0 180.5219268798828 22.5)"><text x="0" y="31.536" font-family="Virgil, Segoe UI Emoji" font-size="36px" fill="#1e1e1e" text-anchor="start" style="white-space: pre;" direction="ltr" dominant-baseline="alphabetic">LectureResponseDto</text></g><g stroke-linecap="round" transform="translate(2008.8529348156926 571.7805453607847) rotate(0 191.5137296056132 84.06864196522372)"><path d="M32 0 C147.02 -0.51, 263.08 -0.1, 351.03 0 M32 0 C139.44 1.4, 245.51 1.7, 351.03 0 M351.03 0 C372.47 1.06, 382.22 11.45, 383.03 32 M351.03 0 C370.88 -0.4, 384.38 10.73, 383.03 32 M383.03 32 C381.03 53.93, 383.56 76.34, 383.03 136.14 M383.03 32 C381.22 68.57, 381.77 105.38, 383.03 136.14 M383.03 136.14 C384.11 155.92, 370.69 167.89, 351.03 168.14 M383.03 136.14 C384.36 156.53, 371.8 167.38, 351.03 168.14 M351.03 168.14 C265.66 166.78, 182.5 166.23, 32 168.14 M351.03 168.14 C268.72 166.9, 185.74 165.88, 32 168.14 M32 168.14 C11 168.47, 2 159.3, 0 136.14 M32 168.14 C9.77 167.56, -0.47 159.65, 0 136.14 M0 136.14 C-1.27 95.51, -1.12 60.25, 0 32 M0 136.14 C0.79 96.13, -0.91 55.16, 0 32 M0 32 C-1.67 11.68, 9.97 -0.67, 32 0 M0 32 C-0.75 8.58, 12.92 2.14, 32 0" stroke="#1e1e1e" stroke-width="2" fill="none"></path></g><g transform="translate(2042.782741081462 638.3491873260084) rotate(0 157.58392333984375 17.5)"><text x="157.58392333984375" y="24.528" font-family="Virgil, Segoe UI Emoji" font-size="28px" fill="#1e1e1e" text-anchor="middle" style="white-space: pre;" direction="ltr" dominant-baseline="alphabetic">ResponsePersistService</text></g><g stroke-linecap="round"><g transform="translate(1970.3898880327692 712.5200931365347) rotate(0 252.3914168928975 0.23130567377813804)"><path d="M-0.23 -0.79 C83.78 -0.53, 420.46 0.6, 504.45 0.86 M-1.81 1.42 C81.97 1.36, 418.68 -1.19, 503.33 -1.05" stroke="#1e1e1e" stroke-width="2" fill="none"></path></g><g transform="translate(1970.3898880327692 712.5200931365347) rotate(0 252.3914168928975 0.23130567377813804)"><path d="M479.86 7.58 C486.48 4.17, 496.34 0.08, 503.33 -1.05 M479.86 7.58 C486.96 4.04, 495.98 1.45, 503.33 -1.05" stroke="#1e1e1e" stroke-width="2" fill="none"></path></g><g transform="translate(1970.3898880327692 712.5200931365347) rotate(0 252.3914168928975 0.23130567377813804)"><path d="M479.8 -9.52 C486.35 -7.19, 496.22 -5.54, 503.33 -1.05 M479.8 -9.52 C486.79 -7.48, 495.83 -4.49, 503.33 -1.05" stroke="#1e1e1e" stroke-width="2" fill="none"></path></g></g><mask></mask><g transform="translate(2518.0096921163354 691.5175159648471) rotate(0 27.125991821289062 22.5)"><text x="0" y="31.536" font-family="Virgil, Segoe UI Emoji" font-size="36px" fill="#1e1e1e" text-anchor="start" style="white-space: pre;" direction="ltr" dominant-baseline="alphabetic">DB</text></g><g transform="translate(813.6251983041043 10) rotate(0 527.34375 21.599999999999998)"><text x="0" y="34.762499999999996" font-family="Cascadia, Segoe UI Emoji" font-size="36px" fill="#1e1e1e" text-anchor="start" style="white-space: pre;" direction="ltr" dominant-baseline="alphabetic">overall structure without considering spring-batch</text></g></svg>